PathFileType	4	(X/Y/Z)	C:/Users/opensim2020/Desktop/walking_exp_matlab/subject03_walking15_straight_04.trc	
DataRate	CameraRate	NumFrames	NumMarkers	Units	OrigDataRate	OrigDataStartFrame	OrigNumFrames	
100.00	100.00	9	47	mm	100.00	2298	182	
Frame#	Time	LFHD			RFHD			LBHD			RBHD			C7			T10			CLAV			STRN			RBAK			LSHO			LUPA			LELB			LFRM			LWRA			LWRB			LFIN			RSHO			RUPA			RELB			RFRM			RWRA			RWRB			RFIN			LASI			RASI			LPSI			RPSI			LTHI			LKNE			LTIB			LANK			LHEE			LTOE			RTHI			RKNE			RTIB			RANK			RHEE			RTOE			*39			*40			*41			*42			*43			*44			*45			*46			
		X1	Y1	Z1	X2	Y2	Z2	X3	Y3	Z3	X4	Y4	Z4	X5	Y5	Z5	X6	Y6	Z6	X7	Y7	Z7	X8	Y8	Z8	X9	Y9	Z9	X10	Y10	Z10	X11	Y11	Z11	X12	Y12	Z12	X13	Y13	Z13	X14	Y14	Z14	X15	Y15	Z15	X16	Y16	Z16	X17	Y17	Z17	X18	Y18	Z18	X19	Y19	Z19	X20	Y20	Z20	X21	Y21	Z21	X22	Y22	Z22	X23	Y23	Z23	X24	Y24	Z24	X25	Y25	Z25	X26	Y26	Z26	X27	Y27	Z27	X28	Y28	Z28	X29	Y29	Z29	X30	Y30	Z30	X31	Y31	Z31	X32	Y32	Z32	X33	Y33	Z33	X34	Y34	Z34	X35	Y35	Z35	X36	Y36	Z36	X37	Y37	Z37	X38	Y38	Z38	X39	Y39	Z39	X40	Y40	Z40	X41	Y41	Z41	X42	Y42	Z42	X43	Y43	Z43	X44	Y44	Z44	X45	Y45	Z45	X46	Y46	Z46	X47	Y47	Z47	

137	1.360	-925.52539	-602.76361	1611.97644	-1056.74353	-602.38123	1628.60461	-932.65607	-473.17618	1576.70117	-1062.47498	-477.33688	1592.61487	-1008.59753	-438.24573	1414.59143	-1009.03143	-419.05566	1099.88232	-1003.29077	-562.54175	1344.74316	-999.25238	-615.75226	1182.21606	-1110.35229	-400.66321	1236.96155	-849.75269	-501.87628	1375.09534	-783.08728	-499.82648	1176.04639	-775.16113	-522.78796	1054.34265	-782.34540	-583.03436	939.49396	-820.68628	-640.25311	838.04114	-772.26953	-613.42255	829.37109	-786.05658	-658.69409	760.13354	-1164.66382	-523.10284	1370.76074	-1246.80664	-553.35925	1153.99316	-1259.38635	-584.54108	1045.76013	-1255.08203	-628.84381	916.48175	-1211.34509	-671.48987	830.44153	-1259.69897	-650.29944	819.17322	-1247.77112	-690.59186	759.38751	-894.44366	-590.09473	940.92609	-1129.65125	-584.05151	943.40326	-937.29352	-426.69150	955.17725	-1086.43909	-424.04193	970.68695	-843.48737	-623.22882	646.89789	-873.33807	-693.67731	484.10855	-868.26471	-611.31915	301.60513	-902.71088	-541.90173	104.46651	-939.73297	-491.64667	78.46020	-924.50525	-672.96503	38.63605	-1159.39380	-519.49384	645.42908	-1115.82654	-519.57794	467.68753	-1111.00232	-458.01144	284.16257	-1052.43750	-414.67780	73.64338	-1000.07208	-368.88660	46.52267	-1032.60400	-555.27795	31.11485																								 
138	1.370	-925.16370	-615.17181	1610.90796	-1056.78772	-614.59937	1627.71228	-933.12085	-484.93277	1576.15405	-1062.91284	-489.51566	1592.11548	-1008.71893	-449.86920	1414.04871	-1008.91150	-430.29382	1099.25110	-1003.71826	-574.05524	1343.98828	-1000.06433	-627.11420	1181.39478	-1110.30908	-411.79626	1236.38135	-849.81537	-514.00909	1374.19580	-783.74719	-511.02173	1174.78821	-775.71851	-531.69000	1052.35828	-781.54962	-587.74829	934.80176	-818.40918	-639.76660	829.88837	-770.01843	-612.45605	823.50763	-782.00519	-654.09210	752.05658	-1165.02319	-534.02765	1370.00037	-1247.73181	-565.59320	1154.09570	-1260.73938	-598.22186	1046.40198	-1255.12500	-646.31262	918.50330	-1210.80603	-692.05908	834.49695	-1258.65186	-670.41577	821.79828	-1246.19092	-712.60522	763.36224	-895.06854	-602.12830	940.37451	-1130.24622	-594.14990	942.35199	-936.85065	-438.27866	954.60846	-1085.79602	-434.51373	970.06531	-844.46448	-636.75775	647.20215	-875.73364	-707.53027	484.80103	-870.05115	-635.82227	297.41370	-904.57343	-580.26129	95.63659	-941.07391	-531.11810	66.89616	-928.14905	-715.46545	38.59249	-1158.90466	-526.45551	644.81628	-1115.57764	-524.72778	466.99179	-1110.50940	-461.00043	284.31473	-1051.34119	-415.19644	74.24315	-999.09412	-369.34894	47.59639	-1032.66431	-555.49359	31.01792																								 
139	1.380	-925.19507	-626.97552	1609.89368	-1056.85132	-626.75641	1626.74109	-933.51288	-496.64490	1575.42285	-1063.16797	-501.57803	1591.34546	-1008.34753	-461.68106	1413.31140	-1008.75421	-441.54651	1098.49622	-1004.20172	-585.70428	1343.01965	-1000.78809	-638.53473	1180.39575	-1110.10181	-422.84564	1235.60632	-849.97485	-526.27777	1373.13208	-784.40784	-522.64532	1173.42615	-776.25653	-541.98492	1050.75818	-780.85596	-592.43671	930.27112	-816.17468	-638.79059	822.15558	-767.78668	-610.85907	817.98401	-778.06873	-649.16064	744.63867	-1165.24036	-544.80035	1369.55664	-1248.60535	-577.59357	1153.93799	-1261.80505	-611.69348	1046.78540	-1255.07507	-663.40900	920.37946	-1210.20227	-712.09918	838.55548	-1257.37036	-690.19116	824.33386	-1244.45935	-734.12152	767.29333	-895.71606	-614.32233	939.70184	-1130.93457	-604.27350	941.24152	-936.13348	-449.93362	953.92816	-1085.22498	-445.01920	969.26337	-845.92645	-649.90021	647.51251	-877.83514	-719.98071	484.75470	-871.85107	-659.76807	293.52011	-906.60803	-618.98138	88.06239	-942.08160	-571.12701	56.58139	-931.91333	-757.38739	39.20379	-1158.76624	-533.63928	644.12878	-1115.43542	-530.35400	466.26575	-1110.04236	-464.04669	284.46960	-1050.63196	-415.64383	74.99590	-998.12402	-369.77289	48.72828	-1032.77917	-555.82935	30.80955	-969.81787	-548.93506	1681.49548																					 
140	1.390	-925.36664	-638.73181	1608.62292	-1056.90881	-638.83032	1625.74438	-933.72754	-508.52518	1574.45825	-1063.50513	-513.68768	1590.47583	-1008.14240	-473.47656	1412.37744	-1008.46765	-452.85770	1097.55884	-1004.59290	-597.30804	1341.94287	-1001.47711	-649.98822	1179.25769	-1109.82422	-433.91251	1234.69006	-849.98328	-538.72186	1371.89111	-785.07172	-534.51996	1171.82178	-776.70844	-553.12738	1049.20361	-780.14539	-597.23993	926.07098	-813.79590	-637.97473	815.15106	-765.34784	-609.78333	813.19458	-774.27277	-644.04633	737.92554	-1165.59924	-555.52179	1368.69958	-1249.35999	-589.31787	1153.51965	-1262.60974	-625.00348	1047.03491	-1255.03821	-680.21533	922.29266	-1209.63538	-731.89301	842.70782	-1255.87512	-709.64063	826.84052	-1242.58997	-755.18774	771.21960	-896.29376	-626.91357	938.94598	-1131.53638	-614.39648	940.03271	-935.66260	-461.93307	952.89233	-1084.59863	-455.62485	968.19531	-846.21924	-663.49463	647.39331	-879.54071	-732.29205	484.30856	-873.56335	-682.95795	289.99591	-908.74194	-657.61755	81.78338	-945.76746	-613.26788	47.01472	-935.52582	-798.69720	40.37322	-1158.77319	-541.12317	643.52106	-1115.40906	-536.16699	465.61597	-1109.67603	-467.24701	284.64911	-1049.91980	-416.14203	75.84332	-997.23431	-370.25644	50.03252	-1032.71082	-555.95453	30.70089																								 
141	1.400	-925.36285	-650.54205	1607.43652	-1056.84167	-650.80164	1624.61450	-934.09821	-520.20825	1573.42358	-1063.84717	-525.68811	1589.43103	-1007.60236	-485.28973	1411.23816	-1008.08759	-464.17926	1096.58069	-1004.98199	-609.00464	1340.78552	-1002.22919	-661.46698	1178.01733	-1109.37305	-444.95801	1233.66016	-850.05188	-551.32373	1370.58069	-785.76947	-546.44580	1170.20703	-777.22961	-563.16931	1047.27502	-779.48328	-602.08801	922.17932	-811.81976	-636.35040	808.57294	-762.82574	-609.15973	809.09882	-770.72461	-638.83215	731.94806	-1165.67834	-566.32849	1367.58923	-1250.03833	-600.82220	1152.89966	-1263.51367	-638.01160	1047.12891	-1254.90906	-696.54053	924.06604	-1209.00940	-751.03864	846.77545	-1254.46582	-728.62439	829.29803	-1240.61877	-775.76349	775.09888	-897.07581	-639.35315	937.85248	-1132.22632	-624.58563	938.77502	-934.99164	-473.79959	951.83630	-1083.93909	-466.33951	966.90765	-847.35321	-675.50238	646.31787	-881.23938	-743.38458	482.97491	-875.21045	-705.47052	286.71570	-910.91687	-695.77802	76.80499	-947.94110	-653.60797	40.16388	-938.90613	-839.11578	42.40078	-1158.72510	-548.82324	642.93054	-1115.56885	-542.17633	465.04398	-1109.49695	-470.60913	284.90265	-1049.56616	-416.72980	76.75001	-996.63098	-370.70621	51.46606	-1032.57800	-556.16687	30.75955	-969.66602	-572.94696	1677.88867																					 
142	1.410	-925.22552	-661.93579	1606.69189	-1056.77405	-662.76630	1623.52600	-934.91821	-531.55188	1572.39014	-1063.99182	-537.67041	1588.19836	-1007.81793	-496.99899	1410.20483	-1007.43817	-475.54401	1095.41479	-1005.36365	-620.74158	1339.48950	-1003.03296	-673.02100	1176.72083	-1108.87170	-456.06534	1232.55774	-850.00800	-564.06329	1369.20007	-786.25958	-558.81134	1168.50122	-777.71094	-573.90070	1045.65564	-778.84412	-607.02771	918.68317	-809.69733	-635.07574	802.85437	-760.57495	-608.08997	805.50055	-767.41699	-633.61768	726.71167	-1165.88574	-577.30835	1366.38489	-1250.59399	-612.10571	1152.12329	-1264.13599	-650.77979	1046.97131	-1254.65674	-712.46234	925.60345	-1208.39343	-769.65924	850.77130	-1253.20581	-746.99878	831.73962	-1238.66968	-795.77356	778.95117	-897.81317	-652.18188	936.68677	-1132.86499	-634.88672	937.50562	-934.26965	-486.14566	950.56262	-1083.16235	-477.18292	965.49347	-848.33362	-687.13831	644.65833	-882.85889	-753.45129	480.95230	-877.03674	-727.26404	283.72183	-912.85706	-732.76422	73.63459	-950.22552	-692.85046	35.43056	-941.87164	-878.24725	45.70536	-1158.75195	-556.68182	642.39319	-1115.87305	-548.35175	464.48300	-1109.52905	-474.14612	285.24670	-1049.42871	-417.33090	77.75217	-996.37561	-371.07965	53.01962	-1032.44604	-556.32489	30.65401	-969.67993	-584.64386	1676.69556																					 
143	1.420	-925.01270	-673.80450	1605.41992	-1056.77173	-674.66089	1622.35376	-934.65021	-543.46832	1570.87317	-1064.16736	-549.61328	1586.88013	-1006.84094	-509.12543	1408.88733	-1006.64355	-487.06436	1094.22839	-1005.71893	-632.44281	1338.15833	-1003.87274	-684.67542	1175.33191	-1108.24048	-467.20776	1231.32434	-849.95325	-576.96613	1367.76416	-786.56116	-571.15088	1166.73254	-778.04840	-584.42792	1043.84399	-778.14819	-612.04834	915.58075	-807.52661	-634.08209	798.01147	-758.10980	-607.77814	802.69464	-764.20996	-628.88470	722.23175	-1166.02234	-588.10309	1365.19250	-1251.05981	-623.25128	1151.16382	-1264.57837	-663.31885	1046.70227	-1254.30042	-727.96033	927.02649	-1207.68652	-787.57941	854.52802	-1251.80200	-764.94342	834.05054	-1236.61292	-815.18024	782.64728	-898.48560	-665.12646	935.28778	-1133.61584	-645.05994	935.98511	-933.41638	-498.50723	949.22888	-1082.19885	-488.17880	964.04431	-849.09717	-698.06030	642.34198	-884.54755	-763.18378	478.40030	-879.00555	-747.87451	281.26086	-914.55048	-768.04517	71.82452	-952.50397	-731.07886	31.81249	-944.17883	-915.45593	50.79111	-1158.89441	-564.74927	641.89777	-1116.27429	-554.74738	463.90982	-1109.84399	-477.85495	285.65692	-1049.83423	-417.89377	78.95687	-996.52069	-371.40363	54.70326	-1032.71118	-556.51416	30.64735	-969.68304	-596.24988	1675.47339																					 
144	1.430	-925.10718	-685.02094	1604.17981	-1056.85388	-686.58716	1621.17310	-934.77197	-555.24506	1569.40454	-1064.22449	-561.49603	1585.42322	-1007.18054	-520.80359	1407.73962	-1005.60553	-498.71411	1092.99072	-1006.05005	-644.21356	1336.70862	-1004.75055	-696.35907	1173.85901	-1107.67358	-478.34973	1230.18042	-849.96179	-590.04388	1366.29688	-786.64905	-583.75171	1165.18445	-778.15332	-594.64789	1042.16370	-777.35144	-617.24664	912.84802	-805.75391	-632.86035	793.73145	-755.71283	-608.00269	800.49225	-761.67810	-623.58063	718.43250	-1166.14966	-599.11761	1363.83679	-1251.42981	-634.30542	1150.13647	-1264.81201	-675.63013	1046.28296	-1253.90088	-742.98871	928.30334	-1207.04504	-804.75629	858.08313	-1250.24890	-782.15338	836.12238	-1234.81628	-833.99530	786.40112	-899.10645	-678.23541	933.68561	-1134.18640	-655.95490	934.77026	-932.47321	-511.17136	947.71478	-1080.99805	-499.45590	962.55817	-849.74768	-707.94427	639.37024	-886.59729	-772.51959	475.35638	-880.98120	-767.10565	279.54117	-915.70728	-801.04907	71.27367	-953.60760	-766.58270	30.10325	-945.67719	-950.53253	57.72358	-1159.13013	-573.05756	641.32715	-1116.86877	-561.40302	463.21823	-1110.31372	-481.85056	285.99283	-1049.97229	-418.78534	79.97456	-997.00732	-371.72198	56.53973	-1032.86169	-556.69470	30.54396																								 
145	1.440	-924.67047	-697.02283	1602.83801	-1056.60413	-698.33423	1619.93042	-935.07233	-566.69012	1567.86560	-1064.31799	-573.29944	1583.93726	-1006.33673	-532.98114	1406.30640	-1004.45099	-510.57401	1091.62683	-1006.39044	-656.03412	1335.19312	-1005.58649	-708.19092	1172.33215	-1106.90491	-489.60550	1228.86072	-849.93481	-603.32959	1364.89197	-786.72919	-595.96411	1163.57776	-777.95117	-604.46387	1040.42883	-776.47821	-622.57239	910.53839	-804.59058	-631.84613	790.00677	-753.37848	-608.90088	798.90576	-759.24878	-619.02118	715.43842	-1166.18848	-609.99976	1362.49316	-1251.68005	-645.45825	1149.05652	-1264.97583	-687.60840	1045.60828	-1253.43665	-757.53351	929.35339	-1206.53455	-821.34674	861.32196	-1248.87512	-798.67865	837.99750	-1233.02954	-851.99023	789.78253	-899.56580	-691.37280	931.94006	-1134.78052	-667.02692	933.51276	-931.09875	-524.18494	946.03961	-1079.62317	-510.88293	961.09442	-849.70654	-717.29272	635.91638	-889.01733	-781.11853	472.01270	-883.02686	-785.26355	278.34854	-916.43726	-831.93988	72.03881	-954.29541	-799.95197	29.04463	-946.59747	-982.47662	65.98264	-1159.45557	-581.66614	640.69867	-1117.54651	-568.47168	462.48846	-1110.92383	-486.19974	286.34225	-1050.61987	-419.64285	81.24356	-997.72534	-372.10510	58.56827	-1033.43018	-556.86475	30.38980	-969.82245	-619.36102	1672.58093																					 
